<?xml version="1.0" encoding="iso-8859-1"?>
<!-- Generator: Adobe Illustrator 19.0.0, SVG Export Plug-In . SVG Version: 6.00 Build 0)  -->
<svg version="1.1" id="Layer_1" xmlns="http://www.w3.org/2000/svg" xmlns:xlink="http://www.w3.org/1999/xlink" x="0px" y="0px"
	 viewBox="0 0 512 512" style="enable-background:new 0 0 512 512;" xml:space="preserve" fill="#808191">
<g>
	<g>
		<path d="M437.02,74.98C388.667,26.629,324.38,0,256,0S123.333,26.629,74.98,74.98C26.629,123.333,0,187.62,0,256
			s26.629,132.667,74.98,181.02C123.333,485.371,187.62,512,256,512s132.667-26.629,181.02-74.98
			C485.371,388.667,512,324.38,512,256S485.371,123.333,437.02,74.98z M271,60.235C367.326,67.546,444.453,144.674,451.765,241
			h-30.116C414.484,161.229,350.771,97.515,271,90.351V60.235z M241,60.235v30.116C161.229,97.515,97.516,161.229,90.351,241H60.235
			C67.547,144.674,144.674,67.546,241,60.235z M241,451.765C144.674,444.454,67.547,367.326,60.235,271h30.116
			C97.516,350.771,161.229,414.485,241,421.649V451.765z M193.4,365.067v-11.4c0-21.946-17.854-39.8-39.8-39.8h-5l-0.001-72.8
			c0-59.221,48.18-107.4,107.4-107.4c59.22,0,107.4,48.179,107.4,107.4v72.8h-5c-21.946,0-39.801,17.854-39.801,39.8v11.4H193.4z
			 M271,451.765v-30.116c79.771-7.164,143.484-70.878,150.649-150.649h30.115C444.453,367.326,367.326,444.454,271,451.765z"/>
	</g>
</g>
<g>
	<g>
		<path d="M205.867,218.767c-18.638,0-33.801,15.163-33.801,33.8c0,18.637,15.163,33.8,33.801,33.8s33.8-15.163,33.8-33.8
			C239.667,233.929,224.505,218.767,205.867,218.767z"/>
	</g>
</g>
<g>
	<g>
		<path d="M306.133,218.767c-18.638,0-33.8,15.163-33.8,33.8c0,18.637,15.162,33.8,33.8,33.8s33.801-15.163,33.801-33.8
			C339.934,233.929,324.771,218.767,306.133,218.767z"/>
	</g>
</g>
<g>
	<g>
		<rect x="241" y="300.67" width="30" height="30"/>
	</g>
</g>
</svg>
