<svg xmlns="http://www.w3.org/2000/svg" width="94.203" height="44.304" viewBox="0 0 94.203 44.304">
  <g id="Logo" transform="translate(-79.297 -21.696)">
    <g id="Фигура_1" data-name="Фигура 1">
      <g id="Фигура_1-2" data-name="Фигура 1" transform="translate(79 24)">
        <g id="Фигура_1-3" data-name="Фигура 1" fill="none" stroke-linejoin="round">
          <path d="M14.319.3V34.317H34.691L29.4,41.7H.3L4,35.108V5.046L.3.3Z" stroke="none"/>
          <path d="M 3.04182243347168 1.639530181884766 L 5.057104110717773 4.222030639648438 C 5.240854263305664 4.457500457763672 5.340654373168945 4.747608184814453 5.340654373168945 5.046291351318359 L 5.340654373168945 35.10783004760742 C 5.340654373168945 35.33769989013672 5.281515121459961 35.5637092590332 5.168914794921875 35.76411056518555 L 2.586402893066406 40.36046981811523 L 28.71180725097656 40.36046981811523 L 32.08292770385742 35.65652847290039 L 14.31924438476563 35.65652847290039 C 13.57929420471191 35.65652847290039 12.97944450378418 35.05667877197266 12.97944450378418 34.31673049926758 L 12.97944450378418 1.639530181884766 L 3.04182243347168 1.639530181884766 M 0.2968254089355469 0.2997283935546875 L 14.31924438476563 0.2997283935546875 L 14.31924438476563 34.31673049926758 L 34.69144439697266 34.31673049926758 L 29.39996528625488 41.70027160644531 L 0.2968254089355469 41.70027160644531 L 4.0008544921875 35.10783004760742 L 4.0008544921875 5.046291351318359 L 0.2968254089355469 0.2997283935546875 Z" stroke="none"/>
        </g>
      </g>
      <path id="Color_Overlay" data-name="Color Overlay" d="M79.3,65.7,83,59.108V29.047L79.3,24.3H93.319V58.316h20.372L108.4,65.7Z" fill="#615dfa"/>
    </g>
    <path id="Прямоугольник_2" data-name="Прямоугольник 2" d="M117.143,59h7l-3.429,7h-7Z" fill="#615dfa"/>
    <path id="Прямоугольник_2_копия" data-name="Прямоугольник 2 копия" d="M127.143,59h7l-3.429,7h-7Z" fill="#615dfa"/>
    <path id="Прямоугольник_3" data-name="Прямоугольник 3" d="M136.99,59h36l-2.833,7h-36Z" fill="#615dfa"/>
    <g id="FF15">
      <text id="FF15-2" data-name="FF15" transform="translate(134.5 51.696)" fill="#fff" font-size="33" font-family="ArialMT, Arial"><tspan x="-38.511" y="0">FF15</tspan></text>
      <path id="Color_Overlay-2" data-name="Color Overlay" d="M98.7,51.7V28.074h15.936v2.788h-12.81v7.315h11.086v2.788H101.822V51.7Zm20.158,0V28.074H134.79v2.788H121.98v7.315h11.086v2.788H121.98V51.7Zm29.745,0h-2.9V33.214a14.99,14.99,0,0,1-2.747,2,19.475,19.475,0,0,1-3.053,1.5v-2.8a17.516,17.516,0,0,0,4.254-2.771,10.9,10.9,0,0,0,2.578-3.158H148.6Zm7.428-6.187,3.045-.258a5.461,5.461,0,0,0,1.571,3.344,4.266,4.266,0,0,0,2.973,1.12,4.63,4.63,0,0,0,3.545-1.579,5.951,5.951,0,0,0,1.45-4.189,5.379,5.379,0,0,0-1.394-3.916,4.86,4.86,0,0,0-3.65-1.434,5.057,5.057,0,0,0-2.53.636,4.912,4.912,0,0,0-1.772,1.652l-2.723-.354L158.831,28.4h11.747v2.771h-9.426l-1.273,6.349a7.687,7.687,0,0,1,4.463-1.482,7.071,7.071,0,0,1,5.221,2.143,7.49,7.49,0,0,1,2.127,5.511,8.6,8.6,0,0,1-1.869,5.543,7.487,7.487,0,0,1-6.2,2.868,7.641,7.641,0,0,1-5.261-1.8A7.043,7.043,0,0,1,156.027,45.508Z" fill="#615dfa"/>
    </g>
  </g>
</svg>
